<?xml version="1.0" standalone="no"?>
<!DOCTYPE svg PUBLIC "-//W3C//DTD SVG 20010904//EN"
 "http://www.w3.org/TR/2001/REC-SVG-20010904/DTD/svg10.dtd">
<svg version="1.0" xmlns="http://www.w3.org/2000/svg"
 width="225.000000pt" height="225.000000pt" viewBox="0 0 225.000000 225.000000"
 preserveAspectRatio="xMidYMid meet">

<g transform="translate(0.000000,225.000000) scale(0.100000,-0.100000)"
fill="#000000" stroke="none">
<path d="M1 2108 c0 -139 1 -142 15 -97 32 104 119 191 223 223 45 14 42 15
-96 15 l-143 1 1 -142z"/>
<path d="M2011 2234 c26 -7 69 -29 95 -46 56 -37 107 -109 128 -177 14 -45 15
-42 15 97 l1 142 -142 -1 c-139 0 -142 -1 -97 -15z"/>
<path d="M1220 615 l-125 -125 95 -95 95 -95 248 2 247 3 -218 218 -217 217
-125 -125z"/>
<path d="M1 143 l-1 -143 143 1 c138 0 141 1 96 15 -104 32 -191 119 -223 223
-14 45 -15 42 -15 -96z"/>
<path d="M2233 237 c-27 -98 -118 -189 -222 -221 -45 -14 -42 -15 97 -15 l142
-1 0 140 c0 77 -1 140 -3 140 -2 0 -8 -19 -14 -43z"/>
</g>
</svg>
