<?xml version="1.0" standalone="no"?>
<!DOCTYPE svg PUBLIC "-//W3C//DTD SVG 20010904//EN"
 "http://www.w3.org/TR/2001/REC-SVG-20010904/DTD/svg10.dtd">
<svg version="1.0" xmlns="http://www.w3.org/2000/svg"
 width="360.000000pt" height="227.000000pt" viewBox="0 0 360.000000 227.000000"
 preserveAspectRatio="xMidYMid meet">

<g transform="translate(0.000000,227.000000) scale(0.100000,-0.100000)"
fill="#000000" stroke="none">
<path d="M0 1135 l0 -1135 1800 0 1800 0 0 1135 0 1135 -1800 0 -1800 0 0
-1135z m908 228 l3 -43 -225 0 -226 0 0 38 c0 21 3 42 7 46 4 3 104 5 222 4
l216 -3 3 -42z m190 -190 l-3 -218 -44 -3 c-28 -2 -47 1 -52 10 -10 15 -12
412 -2 421 3 4 28 7 55 7 l48 0 -2 -217z m742 167 l0 -50 56 0 55 0 -3 -37 -3
-38 -50 -1 -50 -1 -3 -81 c-2 -45 2 -91 8 -102 12 -22 49 -26 82 -9 17 9 25 7
45 -14 l25 -25 -27 -18 c-42 -27 -141 -30 -185 -6 -45 25 -59 64 -59 169 l-1
82 -32 3 c-30 3 -33 6 -33 38 0 32 3 35 33 38 31 3 32 4 32 53 l0 49 55 0 55
0 0 -50z m352 -2 l-4 -47 59 -3 58 -3 0 -35 0 -35 -55 -5 -55 -5 0 -81 c1 -53
5 -87 14 -98 16 -19 53 -21 83 -5 18 10 24 8 39 -12 25 -33 24 -35 -21 -53
-85 -34 -188 -10 -210 50 -6 14 -10 66 -10 115 l0 89 -35 0 c-34 0 -35 1 -35
40 0 39 1 40 35 40 l35 0 0 51 0 50 53 -3 52 -3 -3 -47z m928 41 c0 -8 4 -9
13 0 15 12 27 5 27 -14 0 -18 -60 -13 -60 5 -1 11 -4 10 -15 -4 -8 -11 -15
-17 -15 -14 0 4 -3 13 -6 22 -5 13 1 16 25 16 17 0 31 -5 31 -11z m-1820 -199
c0 -117 1 -120 25 -136 36 -24 103 -13 132 21 21 23 23 37 23 131 l0 104 55 0
55 0 -2 -167 -3 -168 -45 -3 c-32 -2 -48 1 -56 13 -11 15 -15 15 -46 -1 -41
-22 -132 -23 -173 -2 -65 34 -70 47 -73 194 l-4 134 56 0 56 0 0 -120z m1382
110 c46 -13 105 -77 114 -124 12 -66 11 -66 -151 -66 -154 0 -169 -5 -124 -46
28 -26 132 -31 184 -10 37 16 39 16 62 -6 12 -12 23 -25 23 -29 0 -3 -24 -17
-52 -29 -82 -35 -178 -33 -253 5 -75 39 -98 77 -92 158 3 46 9 63 33 88 58 62
160 85 256 59z m295 -20 c3 -11 6 -20 7 -20 1 0 19 9 41 20 36 18 114 27 127
14 3 -3 1 -20 -4 -38 -10 -32 -14 -34 -65 -38 -84 -7 -97 -25 -103 -151 l-5
-102 -47 -3 -48 -3 0 170 0 171 46 0 c37 0 47 -4 51 -20z m-2177 -95 l0 -45
-170 0 -170 0 0 38 c0 21 3 42 7 45 3 4 80 7 170 7 l163 0 0 -45z m-222 -177
l-3 -43 -55 0 -55 0 -3 43 -3 42 61 0 61 0 -3 -42z"/>
<path d="M2538 1223 c-19 -5 -50 -48 -41 -57 4 -3 48 -6 100 -6 93 0 106 5 85
36 -19 29 -88 42 -144 27z"/>
</g>
</svg>
